<svg xmlns="http://www.w3.org/2000/svg" xmlns:svg="http://www.w3.org/2000/svg" id="svg112" width="316.53" height="165.084" version="1.1" viewBox="0 0 316.53 165.084"><metadata id="metadata109"/><g id="layer1" transform="translate(52.738631,-121.51052)"><g id="g176" transform="translate(0,57.731311)"><path style="clip-rule:evenodd;fill:#fff;fill-opacity:1;fill-rule:evenodd;stroke:none;stroke-width:7.42143011;stroke-linecap:round;stroke-linejoin:round;stroke-miterlimit:4;stroke-dasharray:none;stroke-opacity:1;image-rendering:optimizeQuality;shape-rendering:geometricPrecision;text-rendering:geometricPrecision" id="rect849" d="m -52.720752,220.5092 316.511842,0.4325 -3.19199,3.12456 -310.250997,0.0504 z"/><g id="g4" transform="matrix(0.26458333,0,0,0.26458333,-53.576623,-15.198916)" style="clip-rule:evenodd;fill-rule:evenodd;image-rendering:optimizeQuality;shape-rendering:geometricPrecision;text-rendering:geometricPrecision"><path style="opacity:.98200001;fill:#000" id="path2" d="m 1199.5,887.5 v 5 c -23.63,1.553 -47.3,2.386 -71,2.5 H 74.5 c -22.0173,-0.196 -44.0173,-0.863 -66,-2 -1.66667,-0.333 -3.33333,-0.667 -5,-1 -1.10997,-3.916 0.5567,-5.916 5,-6 37.6351,-1.989 76.5517,-2.822 114.25,-2.5 V 309.75 c -0.04,-6.6885 3.1055,-9.7305 9.75,-9.75 l 947,-1.5 c 7.3614,0.12608 7.2097,3.82062 7.5,9.25 l 1.5,573.75 c 32.66,0.99 65.33,2.157 98,3.5 4.47,0.265 8.8,1.099 13,2.5 z"/></g><rect style="clip-rule:evenodd;fill:#f2f2f2;fill-opacity:1;fill-rule:evenodd;stroke:none;stroke-width:3.73213005;stroke-linecap:round;stroke-linejoin:round;stroke-miterlimit:4;stroke-dasharray:none;stroke-opacity:1;image-rendering:optimizeQuality;shape-rendering:geometricPrecision;text-rendering:geometricPrecision" id="rect828" width="228.241" height="133.626" x="-8.594" y="77.649"/><g id="g12" transform="matrix(0.26458333,0,0,0.26458333,-54.229541,-9.9072564)" style="clip-rule:evenodd;fill:#fff;fill-rule:evenodd;stroke:#000;stroke-width:15.11810017;stroke-miterlimit:4;stroke-dasharray:none;image-rendering:optimizeQuality;shape-rendering:geometricPrecision;text-rendering:geometricPrecision"><path style="opacity:.93199989;fill:#fff;stroke:#000;stroke-width:15.11810017;stroke-miterlimit:4;stroke-dasharray:none" id="path10" d="m 495.5,376.5 c 60.781,-1.864 107.614,22.469 140.5,73 21.52,-2.759 43.02,-2.592 64.5,0.5 25.105,5.551 47.105,16.884 66,34 10.018,10.418 20.018,20.751 30,31 45.148,-4.501 85.148,7.499 120,36 48.038,47.186 60.205,102.353 36.5,165.5 -19.361,40.693 -50.527,67.86 -93.5,81.5 -5.617,1.052 -11.284,1.718 -17,2 l -447,1 c -15.382,-0.28 -30.715,-1.28 -46,-3 -13.855,-2.061 -26.521,-7.061 -38,-15 -58.123,-41.126 -79.29,-96.626 -63.5,-166.5 14.085,-41.423 40.918,-71.589 80.5,-90.5 13.98737,-6.81937 23.112,-7.777 35,-10.5 5.245,-53.345 30.579,-93.845 76,-121.5 17.69,-9.399 36.357,-15.233 56,-17.5 z"/></g><g id="g36" transform="matrix(0.26458333,0,0,0.26458333,-54.811272,-15.198916)" style="clip-rule:evenodd;fill-rule:evenodd;image-rendering:optimizeQuality;shape-rendering:geometricPrecision;text-rendering:geometricPrecision"><path style="opacity:.947;fill:#000" id="path34" d="m 1094.5,902.85355 c 36.05,0.026 62.05,-0.16155 98,1.14645 -2.39,1.861 -5.05,3.194 -8,4 -24.21,6.792 -48.88,10.792 -74,12 -311.997,2.874 -623.997,3.208 -936,1 -31.348,-0.147 -62.682,-0.814 -94,-2 C 62.2602,916.485 52.83387,915.47065 35.07367,910.65165 32.46137,910.01265 21.5543,906.194 19.5,904.5 c 12.019293,-1.00178 62.256885,-1.55984 107.86396,-1.64645 z"/></g><g id="g843" transform="matrix(0.26458333,0,0,0.26458333,-57.712197,62.314814)" style="clip-rule:evenodd;fill-rule:evenodd;image-rendering:optimizeQuality;shape-rendering:geometricPrecision;text-rendering:geometricPrecision"><rect id="rect858" width="142.058" height="142.058" x="595.69" y="-103.655" transform="matrix(0.88450881,0.4665235,-0.88450881,0.4665235,0,0)" style="fill:none;fill-opacity:.72361797;stroke:#4d4d4d;stroke-width:10.40100002;stroke-linecap:round;stroke-linejoin:round;stroke-miterlimit:4;stroke-dasharray:none;stroke-opacity:1"/><path id="rect858-3" d="m 712.79775,341.47217 26.4242,13.93713 -125.65134,66.27329 -125.65135,-66.27329 31.42905,-16.57687" style="clip-rule:evenodd;fill:none;fill-opacity:.72361797;fill-rule:evenodd;stroke:#4d4d4d;stroke-width:9.44882011;stroke-linecap:round;stroke-linejoin:round;stroke-miterlimit:4;stroke-dasharray:none;stroke-opacity:1;image-rendering:optimizeQuality;shape-rendering:geometricPrecision;text-rendering:geometricPrecision"/><path style="clip-rule:evenodd;fill:none;fill-opacity:.72361797;fill-rule:evenodd;stroke:#4d4d4d;stroke-width:9.44882011;stroke-linecap:round;stroke-linejoin:round;stroke-miterlimit:4;stroke-dasharray:none;stroke-opacity:1;image-rendering:optimizeQuality;shape-rendering:geometricPrecision;text-rendering:geometricPrecision" id="path895" d="m 712.79775,403.47217 26.4242,13.93713 -125.65134,66.27329 -125.65135,-66.27329 31.42905,-16.57687"/></g><circle style="clip-rule:evenodd;fill:#e6e6e6;fill-opacity:.72361797;fill-rule:evenodd;stroke:none;stroke-width:2.46213007;stroke-linecap:round;stroke-linejoin:round;stroke-miterlimit:4;stroke-dasharray:none;stroke-opacity:1;image-rendering:optimizeQuality;shape-rendering:geometricPrecision;text-rendering:geometricPrecision" id="path897" cx="105.526" cy="70.324" r="3.373"/></g></g></svg>