<svg xmlns="http://www.w3.org/2000/svg" xmlns:svg="http://www.w3.org/2000/svg" id="svg3671" width="119.473" height="117.587" version="1.1" viewBox="0 0 31.611 31.112"><metadata id="metadata3668"/><g id="layer1" transform="translate(-127.06968,-251.20613)"><g id="g3644" transform="translate(32.188992,83.876202)"><path id="path3500" d="m 106.08486,191.14867 c -0.96547,0.96547 -6.272582,4.70724 -7.238053,3.74177 -0.96547,-0.96547 2.776303,-6.27258 3.741773,-7.23805 0.96547,-0.96547 2.53081,-0.96547 3.49628,0 0.96547,0.96547 0.96547,2.53081 0,3.49628 z" style="opacity:1;fill:#fff;fill-opacity:1;stroke:#000;stroke-width:.80000001;stroke-linecap:round;stroke-linejoin:round;stroke-miterlimit:4;stroke-dasharray:none;stroke-dashoffset:0;stroke-opacity:1"/><path id="path3496" d="m 107.97603,177.47415 -5.81311,-0.46772 -4.543584,4.54358 6.815374,1.46998" style="fill:#e6e6e6;fill-opacity:1;stroke:#000;stroke-width:.80000001;stroke-linecap:butt;stroke-linejoin:round;stroke-miterlimit:4;stroke-dasharray:none;stroke-opacity:1"/><path style="fill:#e6e6e6;fill-opacity:1;stroke:#000;stroke-width:.80000001;stroke-linecap:butt;stroke-linejoin:round;stroke-miterlimit:4;stroke-dasharray:none;stroke-opacity:1" id="path3498" d="m 116.33895,185.83706 0.46772,5.81312 -4.54358,4.54358 -1.46998,-6.81537"/><path id="path3507" d="m 124.47696,175.13554 c -3.04547,8.88863 -9.24786,11.9278 -17.10813,16.04563 l -4.72874,-4.72874 v 0 c 4.11782,-7.86027 7.157,-14.06266 16.04561,-17.10813" style="fill:#ffb443;fill-opacity:1;stroke:#000;stroke-width:.80000001;stroke-linecap:round;stroke-linejoin:round;stroke-miterlimit:4;stroke-dasharray:none;stroke-opacity:1"/><path id="path3488" d="m 118.6857,169.3443 c 2.10855,-0.72245 4.54627,-1.26724 7.40563,-1.61438 -0.34713,2.85936 -0.89192,5.29708 -1.61437,7.40562 z" style="fill:#e6e6e6;fill-opacity:1;stroke:#000;stroke-width:.80000001;stroke-linecap:round;stroke-linejoin:round;stroke-miterlimit:4;stroke-dasharray:none;stroke-opacity:1"/><circle id="path3494" cx="207.75" cy="44.04" r="3.213" transform="rotate(45)" style="opacity:1;fill:#ececec;fill-opacity:1;stroke:#1a1a1a;stroke-width:.80000001;stroke-linecap:round;stroke-linejoin:round;stroke-miterlimit:4;stroke-dasharray:none;stroke-dashoffset:0;stroke-opacity:1"/><path id="path2825-9" d="m 97.410853,193.42567 -2.126122,2.12613" style="fill:none;stroke:#000;stroke-width:.80000001;stroke-linecap:round;stroke-linejoin:round;stroke-miterlimit:4;stroke-dasharray:none;stroke-opacity:1"/><path style="fill:none;stroke:#000;stroke-width:.80000001;stroke-linecap:round;stroke-linejoin:round;stroke-miterlimit:4;stroke-dasharray:none;stroke-opacity:1" id="path2827-2" d="m 97.808148,190.17529 -2.126118,2.12612"/><path id="path2829-0" d="m 105.20624,194.28647 -2.12613,2.12612" style="fill:none;stroke:#000;stroke-width:.80000001;stroke-linecap:round;stroke-linejoin:round;stroke-miterlimit:4;stroke-dasharray:none;stroke-opacity:1"/><path id="path2825-9-2" d="m 101.42277,195.91131 -2.126123,2.12613" style="fill:none;stroke:#000;stroke-width:.80000001;stroke-linecap:round;stroke-linejoin:round;stroke-miterlimit:4;stroke-dasharray:none;stroke-opacity:1"/></g></g></svg>