<svg xmlns="http://www.w3.org/2000/svg" xmlns:svg="http://www.w3.org/2000/svg" id="svg2890" width="107.597" height="105.132" version="1.1" viewBox="0 0 28.468 27.816"><metadata id="metadata2887"/><g id="layer1" transform="translate(-186.09316,-246.05023)"><g id="g2859" transform="translate(108.0067,184.03171)"><path id="path2768" d="m 87.372246,82.645155 v -4.985279 c -2.182912,-1.584691 -3.474819,-4.120639 -3.474819,-6.818108 0,-4.652032 3.77122,-8.423249 8.423252,-8.423249 4.65203,0 8.423251,3.771217 8.423251,8.423249 0,2.697469 -1.291895,5.233417 -3.47482,6.818108 v 4.985279 c 0,3.955792 -2.712758,6.491555 -4.948431,6.491555 -2.235672,0 -4.948433,-2.535763 -4.948433,-6.491555 z" style="opacity:1;fill:#ffb443;fill-opacity:1;stroke:#000;stroke-width:.79999995;stroke-linecap:square;stroke-linejoin:miter;stroke-miterlimit:4;stroke-dasharray:none;stroke-dashoffset:0;stroke-opacity:1"/><g style="stroke:#000;stroke-opacity:1" id="g2819" transform="translate(-0.0774075)"><path style="fill:none;stroke:#000;stroke-width:.80000001;stroke-linecap:round;stroke-linejoin:round;stroke-miterlimit:4;stroke-dasharray:none;stroke-opacity:1" id="path2813" d="m 88.566439,73.362213 2.221677,2.221677 v 6.798671"/><path id="path2815" d="m 96.229733,73.362213 -2.221677,2.221677 v 6.798671" style="fill:none;stroke:#000;stroke-width:.80000001;stroke-linecap:round;stroke-linejoin:round;stroke-miterlimit:4;stroke-dasharray:none;stroke-opacity:1"/></g><rect id="rect2796" width="11.971" height="3.244" x="86.335" y="81.017" rx="1.478" ry="1.622" style="opacity:1;fill:#f9f9f9;fill-opacity:1;stroke:#000;stroke-width:.80000001;stroke-linecap:square;stroke-linejoin:miter;stroke-miterlimit:4;stroke-dasharray:none;stroke-dashoffset:0;stroke-opacity:1"/><rect id="rect2796-7" width="9.497" height="3.012" x="87.572" y="83.961" rx="1.495" ry="1.996" style="opacity:1;fill:#f9f9f9;fill-opacity:1;stroke:#000;stroke-width:.80000001;stroke-linecap:square;stroke-linejoin:miter;stroke-miterlimit:4;stroke-dasharray:none;stroke-dashoffset:0;stroke-opacity:1"/><rect style="opacity:1;fill:#f9f9f9;fill-opacity:1;stroke:#000;stroke-width:.80000001;stroke-linecap:square;stroke-linejoin:miter;stroke-miterlimit:4;stroke-dasharray:none;stroke-dashoffset:0;stroke-opacity:1" id="rect2821" width="6.211" height="2.692" x="89.215" y="86.742" rx="1.345" ry="1.996"/><g id="g2843" transform="translate(0.245296)"><path style="fill:none;stroke:#000;stroke-width:.80000001;stroke-linecap:round;stroke-linejoin:round;stroke-miterlimit:4;stroke-dasharray:none;stroke-opacity:1" id="path2825" d="m 102.89711,70.19817 h 3.00679"/><path id="path2827" d="m 102.36718,72.59785 2.60396,1.503395" style="fill:none;stroke:#000;stroke-width:.80000001;stroke-linecap:round;stroke-linejoin:round;stroke-miterlimit:4;stroke-dasharray:none;stroke-opacity:1"/><path style="fill:none;stroke:#000;stroke-width:.80000001;stroke-linecap:round;stroke-linejoin:round;stroke-miterlimit:4;stroke-dasharray:none;stroke-opacity:1" id="path2829" d="m 102.36718,67.798474 2.60396,-1.503395"/><path id="path2831" d="m 81.253655,70.19817 h -3.00679" style="fill:none;stroke:#000;stroke-width:.80000001;stroke-linecap:round;stroke-linejoin:round;stroke-miterlimit:4;stroke-dasharray:none;stroke-opacity:1"/><path style="fill:none;stroke:#000;stroke-width:.80000001;stroke-linecap:round;stroke-linejoin:round;stroke-miterlimit:4;stroke-dasharray:none;stroke-opacity:1" id="path2833" d="m 81.783585,72.59785 -2.60396,1.503395"/><path id="path2835" d="m 81.783585,67.798474 -2.60396,-1.503395" style="fill:none;stroke:#000;stroke-width:.80000001;stroke-linecap:round;stroke-linejoin:round;stroke-miterlimit:4;stroke-dasharray:none;stroke-opacity:1"/></g></g></g></svg>